<?xml version="1.0" encoding="UTF-8" standalone="no"?>
<!-- Created with Inkscape (http://www.inkscape.org/) -->

<svg
   width="1968.9595mm"
   height="2078.2461mm"
   viewBox="0 0 1968.9595 2078.2461"
   version="1.1"
   id="svg1"
   inkscape:version="1.4.2 (f4327f4, 2025-05-13)"
   sodipodi:docname="Hk logo.svg"
   xmlns:inkscape="http://www.inkscape.org/namespaces/inkscape"
   xmlns:sodipodi="http://sodipodi.sourceforge.net/DTD/sodipodi-0.dtd"
   xmlns:xlink="http://www.w3.org/1999/xlink"
   xmlns="http://www.w3.org/2000/svg"
   xmlns:svg="http://www.w3.org/2000/svg">
  <sodipodi:namedview
     id="namedview1"
     pagecolor="#ffffff"
     bordercolor="#000000"
     borderopacity="0.25"
     inkscape:showpageshadow="2"
     inkscape:pageopacity="0.0"
     inkscape:pagecheckerboard="0"
     inkscape:deskcolor="#d1d1d1"
     inkscape:document-units="mm"
     inkscape:zoom="0.028284271"
     inkscape:cx="28019.106"
     inkscape:cy="-5267.9455"
     inkscape:window-width="1822"
     inkscape:window-height="1120"
     inkscape:window-x="48"
     inkscape:window-y="0"
     inkscape:window-maximized="0"
     inkscape:current-layer="layer1"
     showguides="true">
    <sodipodi:guide
       position="-1135.6911,2812.8386"
       orientation="0,-1"
       id="guide1663"
       inkscape:locked="false" />
    <sodipodi:guide
       position="-4475.6054,5233.3921"
       orientation="0,-1"
       id="guide1707"
       inkscape:locked="false" />
    <sodipodi:guide
       position="-3743.6275,7049.402"
       orientation="0,-1"
       id="guide1708"
       inkscape:locked="false" />
    <sodipodi:guide
       position="-541.66033,442.70965"
       orientation="0,-1"
       id="guide2263"
       inkscape:locked="false" />
    <inkscape:page
       x="0.00020096757"
       y="-1.521574e-05"
       width="1968.9595"
       height="2078.2461"
       id="page2"
       margin="0"
       bleed="0" />
  </sodipodi:namedview>
  <defs
     id="defs1">
    <linearGradient
       id="swatch3064"
       inkscape:swatch="solid">
      <stop
         style="stop-color:#000000;stop-opacity:1;"
         offset="0"
         id="stop3064" />
    </linearGradient>
    <linearGradient
       id="swatch3063"
       inkscape:swatch="solid">
      <stop
         style="stop-color:#000000;stop-opacity:1;"
         offset="0"
         id="stop3063" />
    </linearGradient>
    <linearGradient
       id="swatch3062"
       inkscape:swatch="solid">
      <stop
         style="stop-color:#000000;stop-opacity:1;"
         offset="0"
         id="stop3062" />
    </linearGradient>
    <linearGradient
       id="swatch274"
       inkscape:swatch="solid">
      <stop
         style="stop-color:#000000;stop-opacity:1;"
         offset="0"
         id="stop274" />
    </linearGradient>
    <linearGradient
       id="swatch225"
       inkscape:swatch="solid">
      <stop
         style="stop-color:#000000;stop-opacity:1;"
         offset="0"
         id="stop225" />
    </linearGradient>
    <linearGradient
       id="swatch222"
       inkscape:swatch="solid">
      <stop
         style="stop-color:#000000;stop-opacity:1;"
         offset="0"
         id="stop222" />
    </linearGradient>
    <linearGradient
       id="swatch205"
       inkscape:swatch="solid">
      <stop
         style="stop-color:#000000;stop-opacity:1;"
         offset="0"
         id="stop205" />
    </linearGradient>
    <linearGradient
       id="swatch204"
       inkscape:swatch="solid">
      <stop
         style="stop-color:#000000;stop-opacity:1;"
         offset="0"
         id="stop204" />
    </linearGradient>
    <linearGradient
       id="swatch22"
       inkscape:swatch="solid">
      <stop
         style="stop-color:#000000;stop-opacity:1;"
         offset="0"
         id="stop22" />
    </linearGradient>
    <linearGradient
       id="swatch21"
       inkscape:swatch="solid">
      <stop
         style="stop-color:#000000;stop-opacity:1;"
         offset="0"
         id="stop21" />
    </linearGradient>
    <linearGradient
       id="swatch8"
       inkscape:swatch="solid">
      <stop
         style="stop-color:#000000;stop-opacity:1;"
         offset="0"
         id="stop8" />
    </linearGradient>
    <linearGradient
       id="swatch3"
       inkscape:swatch="solid">
      <stop
         style="stop-color:#000000;stop-opacity:1;"
         offset="0"
         id="stop3" />
    </linearGradient>
    <linearGradient
       id="swatch2"
       inkscape:swatch="solid">
      <stop
         style="stop-color:#000000;stop-opacity:1;"
         offset="0"
         id="stop2" />
    </linearGradient>
    <linearGradient
       id="swatch87"
       inkscape:swatch="solid">
      <stop
         style="stop-color:#000000;stop-opacity:1;"
         offset="0"
         id="stop87" />
    </linearGradient>
    <linearGradient
       id="swatch86"
       inkscape:swatch="solid">
      <stop
         style="stop-color:#000000;stop-opacity:1;"
         offset="0"
         id="stop86" />
    </linearGradient>
    <linearGradient
       id="swatch49"
       inkscape:swatch="solid">
      <stop
         style="stop-color:#000000;stop-opacity:1;"
         offset="0"
         id="stop49" />
    </linearGradient>
    <linearGradient
       id="swatch48"
       inkscape:swatch="solid">
      <stop
         style="stop-color:#000000;stop-opacity:1;"
         offset="0"
         id="stop48" />
    </linearGradient>
    <linearGradient
       id="swatch47"
       inkscape:swatch="solid">
      <stop
         style="stop-color:#000000;stop-opacity:1;"
         offset="0"
         id="stop47" />
    </linearGradient>
    <linearGradient
       id="swatch46"
       inkscape:swatch="solid">
      <stop
         style="stop-color:#000000;stop-opacity:1;"
         offset="0"
         id="stop46" />
    </linearGradient>
    <linearGradient
       id="swatch45"
       inkscape:swatch="solid">
      <stop
         style="stop-color:#000000;stop-opacity:1;"
         offset="0"
         id="stop45" />
    </linearGradient>
    <linearGradient
       id="swatch44"
       inkscape:swatch="solid">
      <stop
         style="stop-color:#000000;stop-opacity:1;"
         offset="0"
         id="stop44" />
    </linearGradient>
    <linearGradient
       id="swatch43"
       inkscape:swatch="solid">
      <stop
         style="stop-color:#000000;stop-opacity:1;"
         offset="0"
         id="stop43" />
    </linearGradient>
    <linearGradient
       id="swatch42"
       inkscape:swatch="solid">
      <stop
         style="stop-color:#000000;stop-opacity:1;"
         offset="0"
         id="stop42" />
    </linearGradient>
    <linearGradient
       id="swatch34"
       inkscape:swatch="solid">
      <stop
         style="stop-color:#000000;stop-opacity:1;"
         offset="0"
         id="stop34" />
    </linearGradient>
    <linearGradient
       id="swatch27"
       inkscape:swatch="solid">
      <stop
         style="stop-color:#000000;stop-opacity:1;"
         offset="0"
         id="stop27" />
    </linearGradient>
    <linearGradient
       id="swatch20"
       inkscape:swatch="solid">
      <stop
         style="stop-color:#000000;stop-opacity:1;"
         offset="0"
         id="stop20" />
    </linearGradient>
    <linearGradient
       id="swatch19"
       inkscape:swatch="solid">
      <stop
         style="stop-color:#ffff00;stop-opacity:1;"
         offset="0"
         id="stop19" />
    </linearGradient>
    <linearGradient
       id="swatch18"
       inkscape:swatch="solid">
      <stop
         style="stop-color:#808000;stop-opacity:1;"
         offset="0"
         id="stop18" />
    </linearGradient>
    <linearGradient
       id="swatch17"
       inkscape:swatch="solid">
      <stop
         style="stop-color:#ff0000;stop-opacity:1;"
         offset="0"
         id="stop17" />
    </linearGradient>
    <linearGradient
       id="swatch16"
       inkscape:swatch="solid">
      <stop
         style="stop-color:#999999;stop-opacity:1;"
         offset="0"
         id="stop16" />
    </linearGradient>
    <linearGradient
       id="swatch15"
       inkscape:swatch="solid">
      <stop
         style="stop-color:#800000;stop-opacity:1;"
         offset="0"
         id="stop15" />
    </linearGradient>
    <linearGradient
       id="swatch14"
       inkscape:swatch="solid">
      <stop
         style="stop-color:#e6e6e6;stop-opacity:1;"
         offset="0"
         id="stop14" />
    </linearGradient>
    <linearGradient
       id="swatch13"
       inkscape:swatch="solid">
      <stop
         style="stop-color:#999999;stop-opacity:1;"
         offset="0"
         id="stop13" />
    </linearGradient>
    <linearGradient
       id="swatch12"
       inkscape:swatch="solid">
      <stop
         style="stop-color:#000000;stop-opacity:1;"
         offset="0"
         id="stop12" />
    </linearGradient>
    <linearGradient
       id="swatch1"
       inkscape:swatch="solid">
      <stop
         style="stop-color:#000000;stop-opacity:1;"
         offset="0"
         id="stop1" />
    </linearGradient>
    <linearGradient
       inkscape:collect="always"
       xlink:href="#swatch274"
       id="linearGradient2364"
       gradientUnits="userSpaceOnUse"
       gradientTransform="translate(8109.3304,-3257.9329)"
       x1="10.981598"
       y1="203.79689"
       x2="335.9816"
       y2="203.79689" />
    <linearGradient
       inkscape:collect="always"
       xlink:href="#swatch3062"
       id="linearGradient3062"
       x1="7133.2642"
       y1="-2297.239"
       x2="9038.2646"
       y2="-2297.239"
       gradientUnits="userSpaceOnUse"
       gradientTransform="matrix(0.99595859,0,0,0.99594709,93.753773,33.499549)" />
  </defs>
  <g
     inkscape:label="Layer 1"
     inkscape:groupmode="layer"
     id="layer1"
     transform="translate(-7136.9852,3340.3982)">
    <path
       id="path2286"
       style="fill:#000000;stroke:url(#linearGradient2364)"
       d="m 8545.6774,-3216.6342 c -55.048,0 -99.364,44.3163 -99.364,99.3634 v 155.9626 561.7218 258.6297 223.0153 10.556 a 25,25 0 0 0 24.4368,19.7218 25,25 0 0 0 15.1654,-5.1248 l 4.7238,-4.7289 v 0 l 309.4018,-309.7625 a 100,99.886993 42.910781 0 1 7.5272,-7.289 100,99.886993 42.910781 0 1 4.1439,-3.2427 423.28931,423.28928 0 0 0 50.8697,-46.9594 423.28931,423.28928 0 0 0 -36.2339,-36.9512 423.28931,423.28928 0 0 0 -131.6576,-80.8147 423.28931,423.28928 0 0 1 131.6576,80.8147 423.28931,423.28928 0 0 1 36.234,36.9512 423.28931,423.28928 0 0 0 111.5632,-285.9634 v -0.787 -565.7454 c 0,-55.0471 -44.316,-99.3634 -99.363,-99.3634 z m -589.3289,15.4295 a 162.5,162.50002 0 0 0 -162.5002,162.4997 v 655.8271 a 423.28931,423.28928 0 0 1 53.5063,17.0941 423.28931,423.28928 0 0 0 -53.5063,-17.0941 423.28931,423.28928 0 0 0 -101.7793,-12.4183 423.28931,423.28928 0 0 0 -28.497,1.9782 423.28931,423.28928 0 0 0 -194.3814,61.451 423.28931,423.28928 0 0 0 -31.3981,22.4942 423.28931,423.28928 0 0 0 -167.7794,305.0755 423.28931,423.28928 0 0 0 -1.233,32.29 423.28931,423.28928 0 0 0 1.233,32.2905 v 441.1281 a 100,99.886993 0 0 0 -0.8222,12.7848 100,99.886993 0 0 0 100.0001,99.8874 100,99.886993 0 0 0 99.9996,-99.8874 100,99.886993 0 0 0 0,-0.055 100,99.886993 0 0 0 0,-5e-4 v -126.2879 -314.5586 -99.9412 -12.8188 a 162.5,162.50002 0 0 1 162.3736,-156.0903 162.5,162.50002 0 0 1 162.2841,154.1229 v 16.754 98.0576 365.4852 12.4416 a 162.5,162.50002 0 0 0 162.5002,162.5002 162.5,162.50002 0 0 0 162.5001,-162.5002 V -3038.705 a 162.5,162.50002 0 0 0 -162.5001,-162.4997 z m 161.2201,182.0215 a 162.5,162.50002 0 0 1 -3.5693,19.0774 162.5,162.50002 0 0 1 -3.8561,12.7925 162.5,162.50002 0 0 0 3.8561,-12.7925 162.5,162.50002 0 0 0 3.5693,-19.0774 z m -8.6739,35.5477 a 162.5,162.50002 0 0 1 -13.5805,28.8194 162.5,162.50002 0 0 0 8.0594,-15.4068 162.5,162.50002 0 0 0 5.5211,-13.4126 z m 567.3866,29.0773 a 423.28931,423.28928 0 0 1 42.2961,15.1949 423.28931,423.28928 0 0 0 -42.2961,-15.1949 z m -605.0282,30.7583 a 162.5,162.50002 0 0 1 -33.6548,25.8243 162.5,162.50002 0 0 0 33.6548,-25.8243 z m -192.8156,27.4707 a 162.5,162.50002 0 0 0 15.7246,7.7546 162.5,162.50002 0 0 1 -15.7246,-7.7546 z m 937.2632,15.6667 a 423.28931,423.28928 0 0 1 1.158,0.8238 423.28931,423.28928 0 0 1 33.0931,29.1878 423.28931,423.28928 0 0 0 -34.2511,-30.0116 z m -1021.8524,541.3768 a 262.49997,262.49997 0 0 1 25.2305,22.6265 262.49997,262.49997 0 0 0 -25.2305,-22.6265 z m 151.4207,28.0686 a 423.28931,423.28928 0 0 1 42.6843,36.5115 423.28931,423.28928 0 0 1 0,5e-4 423.28931,423.28928 0 0 1 30.8544,34.4506 423.28931,423.28928 0 0 0 -30.8544,-34.4506 423.28931,423.28928 0 0 0 -42.6843,-36.512 z m 98.9506,105.9651 a 423.28931,423.28928 0 0 1 0.014,0.019 423.28931,423.28928 0 0 1 0.01,0.01 423.28931,423.28928 0 0 0 -0.019,-0.028 z m 696.4965,31.4596 a 423.28931,423.28928 0 0 1 -0.023,0.013 423.28931,423.28928 0 0 1 -6.2978,3.0897 423.28931,423.28928 0 0 1 -37.5394,16.0781 423.28931,423.28928 0 0 0 43.8599,-19.1807 z m -673.0349,8.6041 a 423.28931,423.28928 0 0 1 3.0551,6.0926 423.28931,423.28928 0 0 0 -3.0551,-6.0926 z m 19.8872,44.5182 a 423.28931,423.28928 0 0 1 3.9021,11.3187 423.28931,423.28928 0 0 0 -3.9021,-11.3187 z m 14.9923,47.6839 a 423.28931,423.28928 0 0 1 3.5957,17.8108 423.28931,423.28928 0 0 0 -3.5957,-17.8108 z m 847.0915,8.3199 v 0 a 25,25 0 0 0 -13.5997,4.0225 l -7.3929,7.4016 -218.6243,218.8791 v 0 l -8.6046,8.6144 a 25,25 0 0 0 -1.5291,2.9993 25,25 0 0 1 -5e-4,6e-4 25,25 0 0 0 -1.1111,3.175 25,25 0 0 0 -0.9023,6.6549 25,25 0 0 0 3.1079,12.0721 l 9.8257,9.8232 a 25,25 0 0 0 0,5e-4 25,25 0 0 0 0.01,0 v 0 a 25,25 0 0 1 -0.01,0 l 116.7753,116.7365 102.958,102.925 a 25,25 0 0 0 0,0.01 l 2.9662,2.9642 a 25,25 0 0 1 0,5e-4 25,25 0 0 0 16.1267,5.8968 25,25 0 0 0 24.4972,-20.0086 v -9.9824 -442.188 a 25,25 0 0 0 0,-0.01 v -9.9829 a 25,25 0 0 0 -15.5019,-18.2805 25,25 0 0 0 -8.9953,-1.7281 z m -837.6936,41.5329 a 423.28931,423.28928 0 0 1 3.3998,51.1261 423.28931,423.28928 0 0 0 -3.3998,-51.1261 z m 359.267,284.9857 a 25,25 0 0 0 -22.0653,13.2478 25,25 0 0 0 -1.3818,3.0794 25,25 0 0 0 -1.465,6.5789 v 4.1889 135.7566 23.8714 a 162.5,162.50002 0 0 1 0,1.2278 162.5,162.50002 0 0 1 0,1.2279 v 62.9067 c 0,55.0471 44.3169,99.363 99.3639,99.363 h 222.6671 9.1389 a 25,25 0 0 0 20.191,-21.1243 25,25 0 0 0 0.2403,-3.4546 25,25 0 0 0 -5.2141,-15.2823 l -4.5062,-4.5041 a 25,25 0 0 0 -0.01,-0.01 l -145.1622,-145.1162 v 0 0 l -0.1163,-0.1163 -151.1314,-151.0848 v -5e-4 l -6.3061,-6.3035 v 0 a 25,25 0 0 0 -14.2368,-4.4493 z"
       inkscape:export-filename="icon-path2286.png"
       inkscape:export-xdpi="96"
       inkscape:export-ydpi="96" />
    <rect
       style="fill:none;fill-opacity:1;stroke:url(#linearGradient3062);stroke-width:5.29167;stroke-linecap:round;stroke-linejoin:round;stroke-dasharray:5.29167, 42.3334;stroke-dashoffset:0"
       id="rect3061"
       width="1963.6675"
       height="2072.9529"
       x="7139.6309"
       y="-3337.7517"
       ry="98.960289"
       rx="0" />
  </g>
</svg>
